<?xml version="1.0" standalone="no"?>
<!DOCTYPE svg PUBLIC "-//W3C//DTD SVG 20010904//EN"
 "http://www.w3.org/TR/2001/REC-SVG-20010904/DTD/svg10.dtd">
<svg version="1.0" xmlns="http://www.w3.org/2000/svg"
 width="600.000000pt" height="600.000000pt" viewBox="0 0 600.000000 600.000000"
 preserveAspectRatio="xMidYMid meet">
<metadata>
Created by potrace 1.14, written by Peter Selinger 2001-2017
</metadata>
<g transform="translate(0.000000,600.000000) scale(0.100000,-0.100000)"
fill="#000000" stroke="none">
<path d="M0 3000 l0 -3000 262 2 262 3 8 30 c5 17 24 89 43 161 42 159 59 206
124 357 55 129 81 171 162 263 30 34 81 94 115 135 35 42 78 83 100 94 21 10
84 45 139 77 55 31 126 64 159 72 32 9 73 24 91 34 48 29 133 54 178 54 30 -1
78 -19 177 -69 110 -55 146 -78 194 -127 32 -33 65 -71 73 -83 9 -13 21 -23
28 -23 6 0 22 -21 35 -46 24 -46 40 -64 40 -44 0 30 -64 133 -107 173 -13 11
-23 28 -23 38 0 9 -12 25 -28 34 -15 10 -46 37 -68 61 -36 37 -146 115 -209
149 -53 28 -115 40 -212 39 -127 0 -124 13 12 52 107 32 128 33 269 18 195
-20 244 -44 387 -191 58 -59 117 -130 132 -156 68 -123 137 -355 137 -459 0
-91 -53 -218 -136 -326 -36 -48 -49 -97 -17 -71 9 8 44 52 79 98 73 98 100
174 110 298 8 119 -14 207 -98 379 -66 138 -70 144 -156 221 -131 118 -232
193 -262 193 -5 0 -21 5 -37 11 -26 10 -27 11 -9 21 11 6 54 12 97 13 61 1 82
6 103 22 52 41 207 114 249 118 23 2 64 12 90 22 46 17 49 17 61 1 7 -10 18
-18 24 -18 6 0 13 -8 16 -18 4 -13 4 -13 3 3 -3 32 27 66 63 70 18 3 38 12 46
22 12 16 13 15 14 -13 0 -47 34 -149 91 -275 61 -136 71 -152 131 -212 26 -26
59 -68 74 -93 15 -25 28 -43 30 -41 4 4 -51 113 -69 135 -7 9 -7 20 1 37 10
21 8 24 -10 27 -12 2 -26 11 -32 21 -9 16 -2 27 48 74 l60 56 19 -24 18 -23
-7 30 c-4 16 -13 41 -20 56 -17 33 -18 68 -3 68 6 0 8 7 5 16 -8 21 15 74 31
74 7 0 13 5 13 10 0 6 8 10 18 10 14 0 15 2 2 10 -13 8 -13 9 0 14 101 32 140
39 140 22 0 -7 3 -7 8 1 4 7 17 11 27 8 11 -2 38 -9 60 -14 22 -5 60 -12 84
-15 23 -3 58 -10 77 -16 18 -6 38 -9 43 -6 5 4 12 2 16 -4 3 -5 14 -10 23 -10
10 0 28 -13 42 -30 27 -33 45 -38 54 -15 4 11 21 15 65 15 71 0 75 -5 80 -106
1 -24 38 -44 82 -44 47 0 57 35 31 107 -30 84 -35 128 -18 145 8 8 52 30 97
48 51 20 106 51 139 79 30 25 89 67 131 94 81 50 117 60 104 30 -4 -10 -18
-67 -32 -128 -28 -129 -46 -194 -78 -290 -13 -38 -35 -112 -50 -164 -25 -85
-26 -100 -17 -160 18 -114 36 -162 73 -195 107 -95 356 -280 460 -341 65 -38
165 -97 221 -129 128 -75 239 -164 295 -237 78 -100 153 -242 153 -289 0 -19
8 -20 285 -20 l285 0 0 3000 0 3000 -3000 0 -3000 0 0 -3000z m3795 2178 c28
-6 100 -29 160 -51 61 -21 124 -41 140 -44 17 -3 39 -12 50 -19 11 -7 39 -20
62 -28 22 -8 58 -25 79 -39 22 -13 57 -30 79 -38 53 -18 65 -27 58 -47 -4 -14
-3 -15 5 -2 9 12 13 12 29 -1 10 -9 26 -19 35 -22 9 -3 24 -22 33 -41 9 -19
23 -40 31 -47 17 -14 18 -30 2 -24 -7 3 -19 1 -27 -4 -20 -13 -4 -49 31 -71
16 -10 26 -20 21 -23 -5 -3 -15 -2 -23 3 -7 4 -20 5 -29 2 -14 -5 -14 -3 -2
11 12 15 11 17 -3 17 -9 0 -31 15 -49 33 -56 56 -113 97 -184 131 -193 96
-356 156 -423 156 -20 0 -41 5 -46 10 -6 6 -51 13 -100 17 -49 3 -96 10 -104
15 -10 6 18 7 77 4 70 -3 100 -1 123 10 16 9 44 14 61 12 47 -5 36 11 -28 41
-51 25 -75 29 -193 34 -165 8 -167 8 -105 17 61 8 172 3 240 -12z m-212 -85
c-13 -2 -33 -2 -45 0 -13 2 -3 4 22 4 25 0 35 -2 23 -4z m146 -119 c9 -8 -65
-2 -84 7 -13 6 -4 7 30 3 28 -4 52 -8 54 -10z m316 -28 c18 -13 13 -14 -45
-20 -169 -15 -170 -15 -160 5 16 28 172 40 205 15z m125 -45 c0 -4 -21 -11
-46 -15 -25 -3 -77 -15 -115 -27 -39 -12 -72 -19 -75 -16 -3 3 5 8 17 12 13 4
29 14 37 21 8 8 34 14 62 14 27 0 52 5 55 10 8 12 65 13 65 1z m-237 -18 c-7
-2 -21 -2 -30 0 -10 3 -4 5 12 5 17 0 24 -2 18 -5z m307 -13 c0 -5 -9 -6 -20
-3 -11 3 -20 9 -20 13 0 5 9 6 20 3 11 -3 20 -9 20 -13z m-105 -22 c-17 -4
-37 -5 -45 -2 -20 9 28 22 55 15 17 -4 15 -6 -10 -13z m12 -48 c1 -16 -5 -20
-30 -21 -31 -1 -31 -1 -7 -9 22 -7 21 -8 -13 -9 -23 -1 -36 3 -32 9 4 6 -7 10
-27 10 -25 0 -29 3 -18 10 13 8 12 10 -5 11 -25 2 49 16 95 18 29 1 36 -3 37
-19z m-204 -7 c-7 -2 -19 -2 -25 0 -7 3 -2 5 12 5 14 0 19 -2 13 -5z m353
-299 c123 -39 143 -54 213 -159 44 -66 109 -192 116 -225 2 -8 16 -49 31 -90
19 -53 27 -91 25 -130 -2 -62 6 -120 17 -119 25 4 31 -3 26 -33 -3 -18 -7 -47
-9 -65 -2 -18 -5 -36 -8 -40 -6 -10 29 -176 43 -203 14 -26 22 -25 48 5 29 33
65 32 92 -2 15 -20 20 -36 16 -56 -3 -15 1 -62 10 -105 12 -58 15 -137 14
-320 -1 -240 -7 -292 -34 -292 -7 0 -19 -7 -26 -15 -16 -20 -49 -19 -71 1 -10
9 -22 13 -28 10 -5 -4 -17 -41 -27 -84 -16 -74 -33 -122 -34 -94 0 17 -20 15
-20 -3 0 -8 7 -15 15 -15 35 0 6 -98 -48 -165 l-24 -29 0 26 c0 18 4 25 13 21
9 -3 14 2 14 15 0 12 4 23 9 27 6 3 6 17 0 35 -7 20 -7 35 1 50 13 24 4 43
-10 21 -7 -12 -12 -12 -34 2 -28 19 -46 22 -46 7 0 -5 8 -6 18 -3 14 6 15 4 5
-9 -7 -8 -12 -31 -10 -51 1 -20 -2 -37 -8 -38 -5 -1 -15 -9 -22 -18 -11 -14
-12 -14 -13 3 0 11 -3 17 -6 13 -3 -3 -16 5 -29 19 -26 28 -35 30 -35 9 0 -9
-6 -12 -17 -8 -13 5 -15 2 -10 -11 5 -14 3 -16 -12 -11 -21 6 -34 -25 -25 -62
5 -19 2 -23 -15 -23 -13 0 -21 -6 -21 -16 0 -10 -6 -14 -15 -10 -11 4 -15 -2
-15 -21 0 -22 -2 -24 -16 -12 -13 10 -17 10 -25 -2 -5 -8 -9 -20 -9 -27 0 -7
-8 -12 -17 -10 -10 1 -24 -1 -31 -5 -7 -5 -14 -2 -18 7 -8 20 -34 21 -34 1 0
-17 -16 -20 -25 -5 -5 8 -11 8 -19 1 -9 -7 -19 -6 -34 5 -20 14 -22 14 -22 0
0 -18 -15 -21 -25 -7 -11 19 -58 5 -68 -20 l-9 -24 -14 32 c-17 40 -28 47 -54
33 -17 -9 -20 -8 -20 10 0 11 -6 20 -14 20 -8 0 -16 4 -18 10 -2 6 -15 3 -33
-6 -25 -13 -31 -13 -40 -1 -5 7 -18 16 -27 20 -10 3 -27 21 -37 38 -18 30 -18
34 -3 58 10 17 11 22 2 14 -22 -20 -50 -16 -50 7 0 13 -5 18 -15 14 -8 -4 -15
-1 -15 6 0 7 -8 20 -18 29 -28 24 -33 48 -21 97 8 30 17 44 28 44 9 0 22 5 27
10 16 16 47 1 34 -15 -9 -11 -7 -12 9 -8 12 3 21 11 21 18 0 19 22 24 45 9 11
-7 36 -11 55 -10 19 2 40 -1 47 -6 7 -5 18 -6 24 -2 9 5 10 2 6 -10 -4 -10 -1
-19 8 -22 8 -4 15 -12 15 -19 0 -7 6 -15 13 -18 18 -7 -6 -29 -35 -32 -39 -4
-42 -5 -36 -11 4 -3 8 -4 11 -2 3 2 14 -5 25 -15 11 -10 31 -20 45 -22 21 -4
25 -1 25 21 0 14 6 33 15 41 13 13 14 12 10 -11 -3 -15 -1 -26 6 -26 6 0 11 5
11 10 0 6 7 10 15 10 14 0 15 -35 0 -72 -5 -13 -2 -18 9 -18 9 0 16 6 16 13 0
21 45 56 60 47 9 -6 18 -3 26 8 10 14 10 18 -4 23 -9 3 -17 10 -17 15 -1 18
-16 54 -23 55 -4 0 -23 2 -42 5 -19 3 -46 6 -60 7 -26 2 -60 25 -60 41 0 5 -8
18 -17 28 -27 30 -3 41 94 43 65 2 98 8 127 23 l40 20 41 -23 c30 -17 45 -21
58 -14 9 6 17 13 17 17 0 13 -64 41 -100 44 -19 2 -37 6 -40 9 -3 4 -15 9 -27
13 -17 5 -23 3 -23 -8 0 -16 -46 -15 -130 3 -28 6 -51 6 -62 0 -12 -6 -18 -6
-18 1 0 5 6 10 14 10 7 0 26 18 41 40 15 22 32 40 37 40 5 0 2 7 -6 16 -42 42
-44 80 -4 86 17 2 22 9 20 23 -7 50 -24 71 -79 100 -70 37 -134 38 -165 5 -32
-34 -45 -11 -24 45 20 51 40 57 84 27 15 -10 35 -22 45 -25 15 -6 16 -4 6 16
-7 12 -18 27 -24 34 -12 11 -15 107 -4 128 3 6 3 30 1 55 -7 86 -2 165 18 268
15 73 18 108 10 116 -5 7 -7 16 -3 19 3 4 -3 7 -15 7 -12 0 -22 4 -22 9 0 22
-124 100 -174 110 -106 22 -311 13 -352 -14 -26 -18 -81 -45 -90 -45 -6 0 19
44 29 51 5 3 8 10 7 15 -1 5 14 13 34 17 25 6 36 15 41 34 3 14 8 23 12 20 3
-3 17 5 31 19 24 22 56 33 116 39 12 1 22 3 23 4 2 0 -7 18 -19 39 -26 45 -29
139 -6 174 21 31 168 178 178 178 5 0 15 6 22 14 8 7 56 30 108 51 52 21 100
41 106 46 18 14 185 38 235 33 26 -2 95 -20 155 -40z m325 9 c12 -15 12 -16
-4 -10 -10 4 -23 7 -28 7 -5 0 -9 5 -9 10 0 16 26 12 41 -7z m54 -84 c-5 -15
-4 -19 4 -15 6 4 11 2 11 -3 0 -14 -13 -14 -27 0 -13 13 -6 39 9 39 5 0 6 -10
3 -21z m-1172 -748 c-3 -12 2 -20 14 -24 92 -29 199 -95 181 -112 -3 -3 -20 3
-101 41 -15 7 -49 16 -74 20 -25 4 -55 16 -66 27 l-20 20 22 8 c12 5 24 15 27
24 9 22 23 19 17 -4z m132 -169 c11 -6 32 -13 48 -17 18 -3 27 -12 27 -25 0
-27 -8 -30 -118 -45 -118 -17 -212 -5 -212 28 0 13 6 18 23 16 12 -2 38 2 57
8 19 6 47 14 63 17 22 5 27 12 27 37 l0 31 33 -19 c17 -11 41 -25 52 -31z
m-465 -102 c0 -5 -10 -10 -22 -10 -19 0 -20 2 -8 10 19 13 30 13 30 0z m35
-20 c-4 -7 3 -8 20 -4 15 4 49 -1 82 -11 54 -17 63 -17 205 0 148 18 150 18
176 -2 22 -16 26 -26 24 -59 -2 -22 1 -51 7 -65 7 -20 4 -42 -14 -95 -14 -40
-24 -93 -25 -126 0 -56 1 -58 55 -113 30 -30 55 -59 55 -63 0 -4 -26 -25 -57
-46 -51 -34 -62 -38 -119 -37 -56 1 -64 -2 -78 -25 -24 -35 -33 -123 -15 -135
10 -7 11 -11 2 -17 -6 -4 -13 -23 -15 -42 -4 -45 -30 -47 -43 -2 -5 17 -14 32
-21 32 -6 0 -23 29 -38 64 -15 35 -34 72 -42 82 -60 79 -72 93 -77 87 -4 -3
-12 6 -18 21 -7 14 -15 26 -19 26 -4 0 -15 18 -26 40 -10 22 -22 40 -26 40 -3
0 -5 19 -5 43 2 33 -2 44 -18 53 -11 6 -19 16 -17 22 1 7 -5 12 -13 12 -17 0
-17 1 -20 100 -2 72 15 130 37 130 5 0 13 11 18 25 5 14 14 25 20 25 5 0 10 5
10 10 0 6 -15 8 -39 4 -26 -4 -41 -2 -46 6 -5 8 -4 11 2 7 6 -4 24 0 39 8 34
17 48 19 39 5z m-612 -66 c-3 -8 1 -14 8 -14 7 0 10 -2 7 -5 -2 -3 -21 4 -41
14 -41 21 -41 30 2 23 20 -3 28 -8 24 -18z m-1 -219 c3 -3 2 -20 -1 -37 -5
-24 -12 -31 -34 -34 -34 -3 -35 15 -4 50 23 26 30 30 39 21z m-32 -104 c0 -22
32 -98 52 -122 7 -9 29 -21 48 -27 43 -14 69 -49 45 -59 -22 -8 -134 70 -162
113 -12 19 -20 41 -17 49 4 8 1 15 -5 15 -15 0 -14 17 2 35 17 20 37 18 37 -4z
m230 -91 c0 -5 -4 -10 -10 -10 -5 0 -10 5 -10 10 0 6 5 10 10 10 6 0 10 -4 10
-10z m43 -205 c8 -18 -43 -61 -83 -70 -40 -9 -90 3 -97 23 -4 9 3 22 17 34 18
15 32 17 66 12 24 -3 50 -1 61 5 24 14 30 14 36 -4z m1002 6 c7 -12 -12 -24
-25 -16 -11 7 -4 25 10 25 5 0 11 -4 15 -9z m-1046 -160 c-15 -5 -22 6 -14 19
6 9 10 9 16 -1 5 -8 4 -15 -2 -18z m1636 -281 c3 -5 1 -10 -4 -10 -6 0 -11 5
-11 10 0 6 2 10 4 10 3 0 8 -4 11 -10z m-1595 -610 c-20 -13 -33 -13 -25 0 3
6 14 10 23 10 15 0 15 -2 2 -10z m36 -35 c-19 -15 -46 -20 -46 -10 0 6 40 24
55 24 6 0 1 -6 -9 -14z m54 -32 c0 -12 -64 -53 -83 -53 -20 0 -23 25 -5 36 7
4 28 11 48 15 19 4 36 7 38 8 1 0 2 -2 2 -6z m64 -58 c3 -10 -11 -33 -39 -62
-54 -56 -51 -69 6 -23 31 25 46 31 57 23 30 -18 24 -34 -34 -88 -53 -49 -67
-56 -70 -37 0 4 -9 25 -18 46 -10 21 -15 49 -12 61 5 19 3 22 -14 18 -42 -11
-19 24 33 50 60 30 82 33 91 12z"/>
<path d="M3925 5060 l-50 -5 70 -18 c39 -10 86 -23 105 -29 58 -17 100 -21
100 -10 0 12 -54 32 -86 32 -13 0 -38 8 -56 18 -25 13 -46 17 -83 12z"/>
<path d="M4498 4793 c7 -3 16 -2 19 1 4 3 -2 6 -13 5 -11 0 -14 -3 -6 -6z"/>
<path d="M4225 3889 c-73 -12 -108 -64 -69 -103 8 -9 13 -20 10 -25 -3 -5 4
-7 16 -3 14 3 19 1 14 -6 -5 -8 2 -10 24 -6 19 4 30 2 30 -5 0 -6 -5 -11 -12
-11 -6 0 -8 -3 -5 -6 4 -4 20 7 36 25 19 20 35 29 45 25 10 -4 18 0 22 10 4
11 13 14 29 10 13 -3 26 -1 30 5 3 6 11 9 16 6 5 -4 21 3 36 15 16 13 29 17
31 11 5 -14 32 -14 32 -1 0 16 14 12 39 -11 12 -12 25 -19 28 -15 7 7 -22 36
-36 36 -6 0 -11 5 -11 11 0 6 -6 9 -14 6 -7 -3 -18 -1 -24 5 -14 14 -128 37
-177 36 -22 0 -62 -4 -90 -9z"/>
<path d="M4185 3699 c-40 -11 -66 -72 -42 -96 12 -12 13 -22 6 -41 -16 -42 -6
-48 76 -50 91 -3 151 11 165 38 12 23 30 26 48 8 7 -7 31 -17 55 -23 43 -11
43 -11 33 12 -20 42 -127 84 -216 84 -39 0 -70 4 -70 8 0 3 13 15 30 24 60 36
0 61 -85 36z"/>
<path d="M4490 3630 c0 -5 5 -10 11 -10 5 0 7 5 4 10 -3 6 -8 10 -11 10 -2 0
-4 -4 -4 -10z"/>
<path d="M4226 3441 c-9 -13 82 -33 118 -25 46 10 54 17 26 25 -37 10 -138 10
-144 0z"/>
<path d="M4835 3310 c-7 -12 2 -30 16 -30 12 0 12 27 0 35 -5 3 -12 1 -16 -5z"/>
<path d="M4123 3068 c-31 -15 -29 -26 11 -45 40 -19 69 -12 59 14 -15 43 -31
50 -70 31z"/>
<path d="M4040 2874 c-6 -14 -10 -39 -10 -55 0 -26 3 -29 30 -29 17 0 30 5 30
10 0 6 7 10 15 10 20 0 19 12 -6 54 -25 42 -46 46 -59 10z"/>
<path d="M4270 2796 c0 -7 14 -25 31 -40 24 -21 29 -33 25 -51 -5 -18 -1 -27
15 -36 12 -6 39 -30 60 -52 21 -23 41 -38 45 -34 12 11 -14 146 -30 163 -8 7
-28 15 -45 16 -17 1 -32 7 -35 14 -7 18 -66 36 -66 20z"/>
<path d="M4670 2651 c0 -5 5 -13 10 -16 6 -3 10 -2 10 4 0 5 -4 13 -10 16 -5
3 -10 2 -10 -4z"/>
<path d="M4580 2531 c-13 -25 -13 -41 0 -41 6 0 10 5 10 12 0 6 7 20 17 30 15
16 15 18 0 18 -9 0 -21 -9 -27 -19z"/>
<path d="M3815 2469 c-11 -16 -1 -19 13 -3 7 8 8 14 3 14 -5 0 -13 -5 -16 -11z"/>
<path d="M4470 2450 c0 -5 5 -10 11 -10 5 0 7 5 4 10 -3 6 -8 10 -11 10 -2 0
-4 -4 -4 -10z"/>
<path d="M3767 2384 c-4 -7 0 -17 7 -23 11 -9 16 -9 22 0 4 7 3 9 -4 5 -6 -3
-12 2 -14 11 -2 12 -6 14 -11 7z"/>
<path d="M2205 1456 c11 -8 25 -12 32 -9 7 3 13 0 13 -7 0 -6 5 -8 10 -5 6 3
10 1 10 -5 0 -7 7 -10 15 -6 8 3 15 2 15 -3 0 -11 162 -86 179 -82 9 2 12 -3
8 -13 -4 -10 -1 -16 9 -16 16 0 77 -47 145 -111 22 -20 39 -34 39 -30 -1 17
-93 125 -132 155 -62 48 -175 102 -260 126 -88 24 -110 26 -83 6z"/>
<path d="M2700 1133 c0 -6 8 -17 18 -24 16 -13 16 -13 2 6 -8 11 -16 22 -17
24 -2 2 -3 0 -3 -6z"/>
<path d="M4166 1018 c-2 -7 -8 -29 -15 -49 -15 -48 -14 -79 3 -79 8 0 17 -4
20 -8 15 -24 31 -250 39 -557 1 -11 -3 -89 -7 -172 l-8 -153 31 0 31 0 0 118
c0 64 -5 144 -10 177 -6 33 -14 152 -19 265 -6 124 -17 237 -27 287 -16 70
-16 88 -5 118 10 28 10 39 1 50 -15 18 -30 19 -34 3z"/>
<path d="M2110 948 c0 -9 5 -20 10 -23 6 -3 10 -18 10 -33 0 -15 7 -37 15 -49
14 -21 23 -50 24 -85 1 -22 15 -23 35 -2 20 20 20 4 1 -51 -19 -53 -20 -115
-1 -115 21 0 29 -66 22 -185 -3 -55 -8 -169 -12 -252 l-7 -153 43 0 42 0 -5
103 c-3 56 -7 182 -9 280 -2 103 -7 181 -13 185 -5 4 -11 32 -13 62 -3 58 -25
165 -44 214 -11 27 -12 27 -25 10 -12 -16 -13 -16 -13 9 0 17 -5 27 -15 27 -8
0 -15 8 -15 18 0 9 -7 26 -15 36 -13 17 -15 17 -15 4z"/>
<path d="M1430 442 c0 -29 4 -52 10 -52 10 0 7 86 -4 97 -3 3 -6 -17 -6 -45z"/>
<path d="M2537 369 c-17 -58 -15 -77 4 -35 15 32 23 33 50 2 22 -25 76 -53 84
-44 3 3 -18 23 -47 44 -29 22 -58 50 -64 63 -11 22 -13 20 -27 -30z"/>
<path d="M2097 258 c-6 -18 -10 -46 -9 -63 4 -61 2 -79 -15 -104 -9 -14 -18
-40 -20 -58 -3 -29 -1 -33 20 -33 20 0 24 7 35 68 29 160 22 282 -11 190z"/>
<path d="M2501 194 c0 -11 3 -14 6 -6 3 7 2 16 -1 19 -3 4 -6 -2 -5 -13z"/>
<path d="M2852 192 c-7 -5 -19 -42 -27 -83 -8 -41 -17 -82 -19 -91 -3 -13 2
-18 18 -18 20 0 23 9 37 100 8 55 12 100 9 100 -3 0 -11 -4 -18 -8z"/>
<path d="M2486 87 c-5 -43 -6 -80 -3 -83 8 -8 19 96 15 131 -2 18 -7 -2 -12
-48z"/>
<path d="M1855 88 c4 -13 9 -35 12 -51 7 -36 23 -45 23 -12 0 26 -25 85 -36
85 -4 0 -3 -10 1 -22z"/>
</g>
</svg>
